<svg id="visual" viewBox="0 0 900 600" width="900" height="600" xmlns="http://www.w3.org/2000/svg" xmlns:xlink="http://www.w3.org/1999/xlink" version="1.1"><rect x="0" y="0" width="900" height="600" fill="#ffffff"></rect><path d="M583 600L580.2 585.7C577.3 571.3 571.7 542.7 584.8 514.2C598 485.7 630 457.3 627.8 428.8C625.7 400.3 589.3 371.7 578 343C566.7 314.3 580.3 285.7 584.5 257C588.7 228.3 583.3 199.7 577.2 171.2C571 142.7 564 114.3 556.3 85.8C548.7 57.3 540.3 28.7 536.2 14.3L532 0L900 0L900 14.3C900 28.7 900 57.3 900 85.8C900 114.3 900 142.7 900 171.2C900 199.7 900 228.3 900 257C900 285.7 900 314.3 900 343C900 371.7 900 400.3 900 428.8C900 457.3 900 485.7 900 514.2C900 542.7 900 571.3 900 585.7L900 600Z" fill="#00aaff"></path><path d="M702 600L698.7 585.7C695.3 571.3 688.7 542.7 688.5 514.2C688.3 485.7 694.7 457.3 687.7 428.8C680.7 400.3 660.3 371.7 655.8 343C651.3 314.3 662.7 285.7 660.8 257C659 228.3 644 199.7 638.8 171.2C633.7 142.7 638.3 114.3 633.5 85.8C628.7 57.3 614.3 28.7 607.2 14.3L600 0L900 0L900 14.3C900 28.7 900 57.3 900 85.8C900 114.3 900 142.7 900 171.2C900 199.7 900 228.3 900 257C900 285.7 900 314.3 900 343C900 371.7 900 400.3 900 428.8C900 457.3 900 485.7 900 514.2C900 542.7 900 571.3 900 585.7L900 600Z" fill="#0092db"></path><path d="M716 600L719.2 585.7C722.3 571.3 728.7 542.7 722.7 514.2C716.7 485.7 698.3 457.3 690.5 428.8C682.7 400.3 685.3 371.7 692 343C698.7 314.3 709.3 285.7 719.7 257C730 228.3 740 199.7 746 171.2C752 142.7 754 114.3 752.8 85.8C751.7 57.3 747.3 28.7 745.2 14.3L743 0L900 0L900 14.3C900 28.7 900 57.3 900 85.8C900 114.3 900 142.7 900 171.2C900 199.7 900 228.3 900 257C900 285.7 900 314.3 900 343C900 371.7 900 400.3 900 428.8C900 457.3 900 485.7 900 514.2C900 542.7 900 571.3 900 585.7L900 600Z" fill="#007bb9"></path><path d="M764 600L767.8 585.7C771.7 571.3 779.3 542.7 783.8 514.2C788.3 485.7 789.7 457.3 788.7 428.8C787.7 400.3 784.3 371.7 780.5 343C776.7 314.3 772.3 285.7 763.8 257C755.3 228.3 742.7 199.7 748.8 171.2C755 142.7 780 114.3 786.8 85.8C793.7 57.3 782.3 28.7 776.7 14.3L771 0L900 0L900 14.3C900 28.7 900 57.3 900 85.8C900 114.3 900 142.7 900 171.2C900 199.7 900 228.3 900 257C900 285.7 900 314.3 900 343C900 371.7 900 400.3 900 428.8C900 457.3 900 485.7 900 514.2C900 542.7 900 571.3 900 585.7L900 600Z" fill="#006597"></path><path d="M855 600L845.7 585.7C836.3 571.3 817.7 542.7 816 514.2C814.3 485.7 829.7 457.3 837.5 428.8C845.3 400.3 845.7 371.7 842.7 343C839.7 314.3 833.3 285.7 825.5 257C817.7 228.3 808.3 199.7 807.5 171.2C806.7 142.7 814.3 114.3 824.8 85.8C835.3 57.3 848.7 28.7 855.3 14.3L862 0L900 0L900 14.3C900 28.7 900 57.3 900 85.8C900 114.3 900 142.7 900 171.2C900 199.7 900 228.3 900 257C900 285.7 900 314.3 900 343C900 371.7 900 400.3 900 428.8C900 457.3 900 485.7 900 514.2C900 542.7 900 571.3 900 585.7L900 600Z" fill="#004f77"></path></svg>