<svg id="visual" viewBox="0 0 900 600" width="900" height="600" xmlns="http://www.w3.org/2000/svg" xmlns:xlink="http://www.w3.org/1999/xlink" version="1.1"><rect x="0" y="0" width="900" height="600" fill="#ffffff"></rect><path d="M392 600L387.3 585.7C382.7 571.3 373.3 542.7 394.3 514.2C415.3 485.7 466.7 457.3 463.5 428.8C460.3 400.3 402.7 371.7 384.7 343C366.7 314.3 388.3 285.7 394.8 257C401.3 228.3 392.7 199.7 382.8 171.2C373 142.7 362 114.3 349.8 85.8C337.7 57.3 324.3 28.7 317.7 14.3L311 0L900 0L900 14.3C900 28.7 900 57.3 900 85.8C900 114.3 900 142.7 900 171.2C900 199.7 900 228.3 900 257C900 285.7 900 314.3 900 343C900 371.7 900 400.3 900 428.8C900 457.3 900 485.7 900 514.2C900 542.7 900 571.3 900 585.7L900 600Z" fill="#00aaff"></path><path d="M583 600L577.5 585.7C572 571.3 561 542.7 560.7 514.2C560.3 485.7 570.7 457.3 559.5 428.8C548.3 400.3 515.7 371.7 508.5 343C501.3 314.3 519.7 285.7 517 257C514.3 228.3 490.7 199.7 482.5 171.2C474.3 142.7 481.7 114.3 473.8 85.8C466 57.3 443 28.7 431.5 14.3L420 0L900 0L900 14.3C900 28.7 900 57.3 900 85.8C900 114.3 900 142.7 900 171.2C900 199.7 900 228.3 900 257C900 285.7 900 314.3 900 343C900 371.7 900 400.3 900 428.8C900 457.3 900 485.7 900 514.2C900 542.7 900 571.3 900 585.7L900 600Z" fill="#0092db"></path><path d="M605 600L610.2 585.7C615.3 571.3 625.7 542.7 616 514.2C606.3 485.7 576.7 457.3 564.2 428.8C551.7 400.3 556.3 371.7 567.2 343C578 314.3 595 285.7 611.3 257C627.7 228.3 643.3 199.7 652.8 171.2C662.3 142.7 665.7 114.3 664 85.8C662.3 57.3 655.7 28.7 652.3 14.3L649 0L900 0L900 14.3C900 28.7 900 57.3 900 85.8C900 114.3 900 142.7 900 171.2C900 199.7 900 228.3 900 257C900 285.7 900 314.3 900 343C900 371.7 900 400.3 900 428.8C900 457.3 900 485.7 900 514.2C900 542.7 900 571.3 900 585.7L900 600Z" fill="#007bb9"></path><path d="M683 600L689 585.7C695 571.3 707 542.7 713.8 514.2C720.7 485.7 722.3 457.3 720.7 428.8C719 400.3 714 371.7 708 343C702 314.3 695 285.7 681.3 257C667.7 228.3 647.3 199.7 657.3 171.2C667.3 142.7 707.7 114.3 718.7 85.8C729.7 57.3 711.3 28.7 702.2 14.3L693 0L900 0L900 14.3C900 28.7 900 57.3 900 85.8C900 114.3 900 142.7 900 171.2C900 199.7 900 228.3 900 257C900 285.7 900 314.3 900 343C900 371.7 900 400.3 900 428.8C900 457.3 900 485.7 900 514.2C900 542.7 900 571.3 900 585.7L900 600Z" fill="#006597"></path><path d="M827 600L812.2 585.7C797.3 571.3 767.7 542.7 765.2 514.2C762.7 485.7 787.3 457.3 799.8 428.8C812.3 400.3 812.7 371.7 807.8 343C803 314.3 793 285.7 780.5 257C768 228.3 753 199.7 751.7 171.2C750.3 142.7 762.7 114.3 779.5 85.8C796.3 57.3 817.7 28.7 828.3 14.3L839 0L900 0L900 14.3C900 28.7 900 57.3 900 85.8C900 114.3 900 142.7 900 171.2C900 199.7 900 228.3 900 257C900 285.7 900 314.3 900 343C900 371.7 900 400.3 900 428.8C900 457.3 900 485.7 900 514.2C900 542.7 900 571.3 900 585.7L900 600Z" fill="#004f77"></path></svg>